<svg id="visual" viewBox="0 0 900 450" width="900" height="450" xmlns="http://www.w3.org/2000/svg" xmlns:xlink="http://www.w3.org/1999/xlink" version="1.1"><rect width="900" height="450" fill="#086a86"></rect><g><g transform="translate(684 165)"><path d="M0 -47L30.2 -36L46.3 -8.2L40.7 23.5L16.1 44.1L-16.1 44.1L-40.7 23.5L-46.3 -8.2L-30.2 -36Z" fill="none" stroke="#ffffff" stroke-width="1"></path></g><g transform="translate(773 96)"><path d="M0 -42L27 -32.2L41.4 -7.3L36.4 21L14.4 39.5L-14.4 39.5L-36.4 21L-41.4 -7.3L-27 -32.2Z" fill="none" stroke="#ffffff" stroke-width="1"></path></g><g transform="translate(198 370)"><path d="M0 -33L21.2 -25.3L32.5 -5.7L28.6 16.5L11.3 31L-11.3 31L-28.6 16.5L-32.5 -5.7L-21.2 -25.3Z" fill="none" stroke="#ffffff" stroke-width="1"></path></g><g transform="translate(127 28)"><path d="M0 -31L19.9 -23.7L30.5 -5.4L26.8 15.5L10.6 29.1L-10.6 29.1L-26.8 15.5L-30.5 -5.4L-19.9 -23.7Z" fill="none" stroke="#ffffff" stroke-width="1"></path></g><g transform="translate(449 343)"><path d="M0 -38L24.4 -29.1L37.4 -6.6L32.9 19L13 35.7L-13 35.7L-32.9 19L-37.4 -6.6L-24.4 -29.1Z" stroke="#ffffff" fill="none" stroke-width="1"></path></g><g transform="translate(854 3)"><path d="M0 -38L24.4 -29.1L37.4 -6.6L32.9 19L13 35.7L-13 35.7L-32.9 19L-37.4 -6.6L-24.4 -29.1Z" stroke="#ffffff" fill="none" stroke-width="1"></path></g><g transform="translate(390 8)"><path d="M0 -37L23.8 -28.3L36.4 -6.4L32 18.5L12.7 34.8L-12.7 34.8L-32 18.5L-36.4 -6.4L-23.8 -28.3Z" stroke="#ffffff" fill="none" stroke-width="1"></path></g><g transform="translate(45 415)"><path d="M0 -31L19.9 -23.7L30.5 -5.4L26.8 15.5L10.6 29.1L-10.6 29.1L-26.8 15.5L-30.5 -5.4L-19.9 -23.7Z" stroke="#ffffff" fill="none" stroke-width="1"></path></g></g></svg>