<svg id="visual" viewBox="0 0 900 600" width="900" height="600" xmlns="http://www.w3.org/2000/svg" xmlns:xlink="http://www.w3.org/1999/xlink" version="1.1"><rect x="0" y="0" width="900" height="600" fill="#086a86"></rect><defs><linearGradient id="grad1_0" x1="33.3%" y1="100%" x2="100%" y2="0%"><stop offset="20%" stop-color="#ffffff" stop-opacity="1"></stop><stop offset="80%" stop-color="#ffffff" stop-opacity="1"></stop></linearGradient></defs><defs><linearGradient id="grad1_1" x1="33.3%" y1="100%" x2="100%" y2="0%"><stop offset="20%" stop-color="#ffffff" stop-opacity="1"></stop><stop offset="80%" stop-color="#92b2c1" stop-opacity="1"></stop></linearGradient></defs><defs><linearGradient id="grad1_2" x1="33.3%" y1="100%" x2="100%" y2="0%"><stop offset="20%" stop-color="#086a86" stop-opacity="1"></stop><stop offset="80%" stop-color="#92b2c1" stop-opacity="1"></stop></linearGradient></defs><defs><linearGradient id="grad2_0" x1="0%" y1="100%" x2="66.7%" y2="0%"><stop offset="20%" stop-color="#ffffff" stop-opacity="1"></stop><stop offset="80%" stop-color="#ffffff" stop-opacity="1"></stop></linearGradient></defs><defs><linearGradient id="grad2_1" x1="0%" y1="100%" x2="66.7%" y2="0%"><stop offset="20%" stop-color="#92b2c1" stop-opacity="1"></stop><stop offset="80%" stop-color="#ffffff" stop-opacity="1"></stop></linearGradient></defs><defs><linearGradient id="grad2_2" x1="0%" y1="100%" x2="66.7%" y2="0%"><stop offset="20%" stop-color="#92b2c1" stop-opacity="1"></stop><stop offset="80%" stop-color="#086a86" stop-opacity="1"></stop></linearGradient></defs><g transform="translate(900, 600)"><path d="M-378.6 0C-384.1 -59.6 -389.7 -119.2 -349.8 -144.9C-309.9 -170.5 -224.6 -162.1 -183.1 -183.1C-141.7 -204.1 -144.1 -254.5 -120.9 -291.9C-97.7 -329.4 -48.9 -354 0 -378.6L0 0Z" fill="#5a8da3"></path><path d="M-252.4 0C-256.1 -39.7 -259.8 -79.5 -233.2 -96.6C-206.6 -113.7 -149.7 -108.1 -122.1 -122.1C-94.5 -136.1 -96.1 -169.7 -80.6 -194.6C-65.1 -219.6 -32.6 -236 0 -252.4L0 0Z" fill="#c8d8e0"></path><path d="M-126.2 0C-128 -19.9 -129.9 -39.7 -116.6 -48.3C-103.3 -56.8 -74.9 -54 -61 -61C-47.2 -68 -48 -84.8 -40.3 -97.3C-32.6 -109.8 -16.3 -118 0 -126.2L0 0Z" fill="#ffffff"></path></g><g transform="translate(0, 0)"><path d="M378.6 0C380.8 56.6 383 113.2 349.8 144.9C316.5 176.5 247.8 183.2 207.9 207.9C168 232.6 156.9 275.3 127.1 306.7C97.2 338.2 48.6 358.4 0 378.6L0 0Z" fill="#5a8da3"></path><path d="M252.4 0C253.9 37.7 255.3 75.5 233.2 96.6C211 117.7 165.2 122.1 138.6 138.6C112 155.1 104.6 183.5 84.7 204.5C64.8 225.5 32.4 238.9 0 252.4L0 0Z" fill="#c8d8e0"></path><path d="M126.2 0C126.9 18.9 127.7 37.7 116.6 48.3C105.5 58.8 82.6 61.1 69.3 69.3C56 77.5 52.3 91.8 42.4 102.2C32.4 112.7 16.2 119.5 0 126.2L0 0Z" fill="#ffffff"></path></g></svg>